<?xml version="1.0" standalone="no"?><!DOCTYPE svg PUBLIC "-//W3C//DTD SVG 1.1//EN" "http://www.w3.org/Graphics/SVG/1.1/DTD/svg11.dtd"><svg t="1669974132062" class="icon" viewBox="0 0 1024 1024" version="1.1" xmlns="http://www.w3.org/2000/svg" p-id="3682" xmlns:xlink="http://www.w3.org/1999/xlink" width="32" height="32"><path d="M34.133333 337.066667c21.333333 21.333333 59.733333 21.333333 81.066667 0l217.6-217.6c21.333333-21.333333 21.333333-59.733333 0-81.066667L324.266667 29.866667C302.933333 8.533333 264.533333 8.533333 243.2 29.866667L25.6 247.466667c-21.333333 21.333333-21.333333 59.733333 0 81.066666l8.533333 8.533334z m12.8-68.266667l217.6-217.6c12.8-12.8 29.866667-12.8 38.4 0l8.533334 8.533333c12.8 12.8 12.8 29.866667 0 38.4L93.866667 315.733333c-8.533333 8.533333-25.6 8.533333-38.4 0l-8.533334-8.533333c-8.533333-12.8-8.533333-29.866667 0-38.4zM678.4 661.333333l-38.4-42.666666 106.666667-106.666667-89.6-89.6 42.666666-42.666667-89.6-89.6 46.933334-46.933333 89.6 89.6L866.133333 213.333333c21.333333-21.333333 21.333333-59.733333 0-81.066666L746.666667 12.8c-21.333333-21.333333-59.733333-21.333333-81.066667 0l-119.466667 119.466667 89.6 89.6-46.933333 46.933333-89.6-89.6-42.666667 42.666667-81.066666-76.8-234.666667 230.4 81.066667 81.066666-42.666667 42.666667 89.6 89.6-46.933333 46.933333-89.6-89.6-115.2 115.2c-21.333333 21.333333-21.333333 59.733333 0 81.066667l119.466666 119.466667c21.333333 21.333333 59.733333 21.333333 81.066667 0l115.2-115.2-89.6-89.6 46.933333-46.933334 89.6 89.6 42.666667-42.666666 89.6 89.6 106.666667-106.666667 38.4 38.4 21.333333-17.066667zM584.533333 136.533333L682.666667 38.4c12.8-12.8 29.866667-12.8 38.4 0l119.466666 119.466667c12.8 12.8 12.8 29.866667 0 38.4l-98.133333 98.133333-157.866667-157.866667zM290.133333 746.666667l-93.866666 93.866666c-12.8 12.8-29.866667 12.8-38.4 0L38.4 721.066667c-12.8-12.8-12.8-29.866667 0-38.4l93.866667-93.866667 157.866666 157.866667z m204.8-520.533334L652.8 384l-21.333333 21.333333-157.866667-157.866666 21.333333-21.333334zM379.733333 657.066667l-157.866666-157.866667 21.333333-21.333333 157.866667 157.866666-21.333334 21.333334z m132.266667 46.933333l-68.266667-68.266667-200.533333-200.533333-59.733333-59.733333 187.733333-187.733334 59.733333 59.733334 200.533334 200.533333 68.266666 68.266667-187.733333 187.733333zM900.266667 704c-4.266667-4.266667-17.066667-4.266667-21.333334 0l-179.2 179.2c-4.266667 4.266667-4.266667 17.066667 0 21.333333 4.266667 4.266667 8.533333 4.266667 8.533334 4.266667s8.533333 0 8.533333-4.266667L896 725.333333c12.8-4.266667 12.8-17.066667 4.266667-21.333333zM802.133333 661.333333c-4.266667-4.266667-17.066667-4.266667-21.333333 0l-119.466667 119.466667c-4.266667 4.266667-4.266667 17.066667 0 21.333333 4.266667 4.266667 8.533333 4.266667 8.533334 4.266667s8.533333 0 8.533333-4.266667l119.466667-119.466666c8.533333-4.266667 8.533333-12.8 4.266666-21.333334zM1011.2 733.866667c-4.266667-4.266667-17.066667-4.266667-21.333333 0l-256 256c-4.266667 4.266667-4.266667 17.066667 0 21.333333 4.266667 4.266667 8.533333 4.266667 8.533333 4.266667s8.533333 0 8.533333-4.266667l256-256c12.8-4.266667 12.8-12.8 4.266667-21.333333z" fill="#6BE4F9" p-id="3683"></path></svg>
